<?xml version="1.0" encoding="utf-8"?>
<!-- Generator: Adobe Illustrator 16.0.0, SVG Export Plug-In . SVG Version: 6.00 Build 0)  -->
<!DOCTYPE svg PUBLIC "-//W3C//DTD SVG 1.1//EN" "http://www.w3.org/Graphics/SVG/1.1/DTD/svg11.dtd">
<svg version="1.1" id="Layer_2" xmlns="http://www.w3.org/2000/svg" xmlns:xlink="http://www.w3.org/1999/xlink" x="0px" y="0px"
	 width="40px" height="40px" viewBox="0 0 40 40" enable-background="new 0 0 40 40" xml:space="preserve">
<radialGradient id="SVGID_1_" cx="33.2891" cy="23.4526" r="12.0162" gradientUnits="userSpaceOnUse">
	<stop  offset="0.33" style="stop-color:#ACCDEC"/>
	<stop  offset="0.66" style="stop-color:#FFFFFF"/>
</radialGradient>
<path fill="url(#SVGID_1_)" d="M19.92,11.981l-0.006-0.023l0.042,0.023C19.945,11.981,19.932,11.981,19.92,11.981z"/>
<radialGradient id="SVGID_2_" cx="33.502" cy="23.3604" r="12.0855" gradientUnits="userSpaceOnUse">
	<stop  offset="0.33" style="stop-color:#ACCDEC"/>
	<stop  offset="0.66" style="stop-color:#FFFFFF"/>
</radialGradient>
<path fill="url(#SVGID_2_)" d="M26.302,13.551c0.105,0.023,0.206,0.046,0.298,0.035c0.323-0.037,0.617,0.239,0.656,0.382
	c0.041,0.15,0.129,0.507,0.129,0.507c0.118-0.237-0.018-0.738-0.229-1.094c0.53-0.367,0.938-0.496,1.382-0.127
	c0,0-0.101-0.286-0.383-0.38c-0.282-0.094-0.863,0.067-1.265,0.36c-0.146,0.105-0.369,0.086-0.53,0.051
	c-0.562-0.124-1.175-0.584-1.313-0.834c0,0,0.103,0.357,0.269,0.493C25.62,13.192,25.903,13.463,26.302,13.551z"/>
<radialGradient id="SVGID_3_" cx="33.501" cy="23.3608" r="12.0849" gradientUnits="userSpaceOnUse">
	<stop  offset="0.33" style="stop-color:#ACCDEC"/>
	<stop  offset="0.66" style="stop-color:#FFFFFF"/>
</radialGradient>
<path fill="url(#SVGID_3_)" d="M27.088,20.358c0.315,0,0.646-0.153,0.968-0.612c0.202-0.291,0.335-0.582,0.451-0.838
	c0.218-0.475,0.273-0.919,0.743-1.066c0.155-0.049,0.688-0.256,0.688-0.256c-1.127,0-1.383,0.56-1.679,1.209
	c-0.118,0.258-0.238,0.525-0.428,0.794c-0.445,0.636-0.816,0.67-1.251,0.442c-0.104-0.054-0.652-0.147-0.652-0.147
	S26.718,20.358,27.088,20.358z"/>
<radialGradient id="SVGID_4_" cx="33.502" cy="23.3613" r="12.0859" gradientUnits="userSpaceOnUse">
	<stop  offset="0.33" style="stop-color:#ACCDEC"/>
	<stop  offset="0.66" style="stop-color:#FFFFFF"/>
</radialGradient>
<path fill="url(#SVGID_4_)" d="M39.068,17.286c-0.012-4.063-1.628-5.686-2.93-6.991c-0.212-0.213-0.413-0.415-0.603-0.62
	c-0.182-0.626-0.63-1.467-1.433-2.043c-1.138-2.34-5.026-4.179-6.575-4.927c-1.35-0.652-1.858-0.527-2.433-0.466
	c-0.324,0.035-0.769,0.128-1.14-0.116c-0.425-0.28-1.255-0.636-2.153-0.585c-0.72-0.336-3.42-0.189-4.309,0.092
	c-1.129-0.076-2.015-0.143-3.024,0.011c-1.009,0.154-1.992,0.719-2.859,1.084c-1.072,0.136-2.401,0.65-2.854,0.942
	C7.68,3.948,7.033,4.481,6.295,5.072C5.959,5.34,5.182,6.197,4.475,6.987C3.41,7.86,2.455,9.417,2.307,9.838
	c-0.361,0.333-0.904,0.814-0.968,1.261c-1.236,1.213-1.406,3.88-0.834,4.6c0.018,1.059,0.274,1.928,0.555,2.291
	c0.149,0.896,2.217,3.668,3.232,3.79c0.11,0.014,0.217,0.004,0.321-0.014c-0.183,0.871-0.162,1.666-0.132,2.621
	c0.016,0.503-0.1,1.163,0.052,1.66c0.173,0.568,1.084,1.908,1.573,2.24c0.453,0.522,1,0.905,1.639,1.023
	c1.131,0.636,2.683,0.342,2.727,0.34c0.393,0.265,0.945,0.372,1.563,0.372c1.753,0,4.042-0.862,4.773-1.428
	c0.329,0.111,0.791,0.132,1.389,0.169c0.598,0.038,0.871,1.16,1.518,2.002l-0.022-0.003c-0.076,0.683-0.05,2.14,0.589,2.779
	c0.5,0.5,2.293,4.774,2.293,4.774c-0.333-1.554-1.219-4.183-1.823-4.789c-0.333-0.332-0.538-1.492-0.541-2.16
	c1.048,1.182,2.638,2.495,4.919,3.516c0.111,0.039,0.215,0.073,0.322,0.109c-0.028,0.026,0.058,0.331-0.096,0.815
	c-0.152,0.486,0.114,2.852,0.114,2.852c-0.181-1.266,0.53-3.415,0.692-3.434l-0.001-0.002c0.875,0.265,1.534,0.395,2.07,0.395
	c0.647,0,1.119-0.192,1.59-0.556c0.213,0.044,0.721,0.135,1.339,0.135c0.955,0,2.166-0.218,2.92-1.167
	c1.258-1.581,2.055-3.128,1.865-5.467c1.26-0.293,2.231-0.982,2.888-2.061C40.43,23.861,39.737,19.487,39.068,17.286z
	 M35.751,10.681c0.11,0.111,0.223,0.225,0.336,0.339c-0.025,0.236-0.035,0.561-0.025,0.913v-0.001
	c-0.003,0.007-0.005,0.012-0.007,0.017c-0.036-0.018-0.099-0.062-0.143-0.092c-0.076-0.055-0.162-0.117-0.255-0.153l-0.003,0.007
	c0.02-0.366-0.022-0.788-0.095-1.223C35.623,10.552,35.685,10.615,35.751,10.681z M35.625,11.994
	c0.042,0.024,0.086,0.053,0.128,0.084c0.104,0.074,0.21,0.15,0.32,0.15c0.002,0,0.002,0,0.002,0
	c0.036,0.564,0.123,1.141,0.286,1.463c0,0,0.097-0.55,0.054-0.846c-0.077-0.508-0.097-1.122-0.073-1.557
	c1.115,1.194,2.177,2.752,2.177,6.04l0.014,0.08c0.171,0.555,0.343,1.26,0.479,2.04c-0.356-0.55-0.647-0.909-0.901-1.106
	c0.566-1.401-0.268-3.337-0.775-4.507c-0.075-0.171-0.444-0.348-0.444-0.348c0.054,0.128,0.12,0.282,0.193,0.456
	c0.452,1.045,1.276,2.957,0.789,4.255c-0.061-0.025-0.12-0.042-0.177-0.048c-0.307-0.034-0.896,0.583-0.979,0.657
	c-0.087-0.134-0.177-0.265-0.27-0.392c-0.316-0.427-0.604-0.444-0.79-0.383c-0.376,0.124-0.635,0.676-0.766,1.145
	c-0.178-0.202-0.389-0.385-0.618-0.536c0.129-0.344,0.111-0.823,0.001-1.322h0.003c0.33-1.067,0.855-1.74,1.52-1.944
	c0.565-0.173,1.104,0.032,1.329,0.211c0,0-0.785-0.665-1.409-0.473c-0.477,0.146-1.116,0.574-1.567,1.744
	c-0.195-0.605-0.783-1.312-0.939-1.876c-0.157-0.565,0.921-1.444,1.576-1.918c0.213-0.154,0.396-0.287,0.523-0.401
	C35.48,12.506,35.578,12.273,35.625,11.994z M35.379,20.833c-0.008-0.073-0.021-1-0.276-1.383c0.094-0.438,0.339-1.06,0.642-1.16
	c0.146-0.047,0.308,0.049,0.482,0.286c0.819,1.107,1.38,2.512-0.446,4.585c-0.025-0.138-0.068-0.266-0.131-0.375
	c-0.21-0.37-0.223-0.841-0.234-1.341c-0.003-0.108-0.008-0.217-0.013-0.327c0.055,0.011,0.236,0.075,0.418,0.141
	c0.215,0.077,0.335,0.34,0.335,0.34s-0.134-0.337-0.356-0.488C35.593,20.972,35.39,20.835,35.379,20.833z M34.409,26.05
	c-0.254,0.212-1.968,0.215-2.912,0.001c-0.352-0.08-0.921-0.141-0.921-0.141c0.377,0.221,1.804,0.539,2.915,0.539
	c0.363,0,1.137-0.09,0.889,0.406c-0.248,0.496-0.958,1.052-1.112,1.171c-0.153,0.12-0.52-0.08-0.919-0.155
	c-0.391-0.074-0.878-0.167-1.547-0.221c-0.82-0.067-1.234-0.596-1.672-1.156c-0.488-0.623-0.994-1.269-2.071-1.374
	c-0.789-0.076-1.713-0.202-1.847-0.49c-0.052-0.114,0.01-0.292,0.194-0.561c0.239-0.348,1.016-0.809,1.984-0.976
	c0.875-0.151,1.657-0.019,2.2,0.376c0.563,0.407,1.253,0.549,1.852,0.912c0.404,0.245,0.939,0.34,1.469,0.266
	c0.306-0.042,0.625,0.029,0.95,0.016c0.765-0.031,1.145-0.296,1.365-0.685c-0.061,0.371-0.182,0.784-0.334,1.146
	C34.769,25.421,34.663,25.836,34.409,26.05z M31.798,22.057c-0.16-0.564-0.441-0.938-0.668-1.238c-0.2-0.267-0.358-0.477-0.398-0.74
	c-0.034-0.22,0.068-0.549,0.188-0.931c0.193-0.621,0.433-1.393,0.248-2.193c-0.04-0.176-0.077-0.334-0.112-0.479
	c-0.211-0.888-0.29-1.219-0.134-1.686c0.142-0.425,0.253-0.605,0.469-0.942c0.201,0.125,0.874,0.326,1.214,0.976
	c-0.338,0.39-0.143,1.73-0.017,2.485c0,0-0.034-0.958,0.057-1.58c0.054-0.36,0.548-0.599,1.061,1.124
	c0.514,1.722-0.106,2.029-0.106,2.029c-0.376,0.468-0.496,0.917-0.414,2.536c0.075,1.456-0.145,2.209-0.338,2.62
	c-0.064,0.136-0.265,0.517-0.749,0.34c-0.484-0.177-0.284-0.396-0.166-0.739C32.051,23.301,32.033,22.88,31.798,22.057z
	 M30.547,8.04c0.013-0.451-0.46-0.991-1.484-1.71c0.032,0,0.063,0,0.097,0c0.345-0.003,1.354,0.143,1.354,0.143
	c0.357,0.109,0.72,0.3,1.056,0.637c0.916,0.917,0.344,2.556,0.042,3.243c-0.044-0.07-0.088-0.137-0.137-0.2
	C31.588,9.399,30.996,8.523,30.547,8.04z M28.136,7.002c-0.258-0.089-0.366-0.12-0.531-0.172c-0.396-0.125-0.737-0.233-0.876-0.321
	c0,0,0.628,0.411,0.97,0.525c0.342,0.114,1.878,0.86,2.363,1.236c0.484,0.377,0.771,1.021,0.859,1.484
	c-0.888-0.887-1.691-1.334-2.37-1.315c-0.307,0.006-0.522,0.103-0.659,0.192c-0.156-0.263-0.366-0.397-0.551-0.463
	c-0.741-0.265-2.083,0.575-2.083,0.575c-0.733-0.647-1.533-0.438-1.958-0.327l-0.083,0.021c-0.024,0.006-0.051,0.021-0.074,0.031
	c-0.005-0.199-0.06-0.434-0.215-0.637l0.01-0.019c0.329-0.568,0.702-1.21,1.498-1.652c0.751-0.418,2.348-0.808,3.1-0.615
	c0.519,0.133,0.741,0.348,0.868,0.612C28.46,6.276,28.557,7.136,28.136,7.002z M28.606,6.922c0.063-0.111,0.237-0.076,0.294-0.035
	c0.542,0.394,0.819,0.671,0.958,0.854c-0.359-0.214-0.76-0.39-1.154-0.539C28.628,7.173,28.542,7.034,28.606,6.922z M34.95,20.556
	c-0.324,0.442-0.996,1.188-1.036,1.921c0,0,0.147-0.425,0.372-0.764c0.198-0.301,0.576-0.592,0.675-0.711
	c-0.068,0.398,0.167,1.71,0.259,2.163c0.092,0.452-0.364,1.21-1.369,1.227c-0.466,0.007-0.842,0.082-0.588-0.683
	c0.158-0.476,0.251-1.203,0.195-2.301c-0.084-1.621,0.224-2.083,0.557-2.48C34.886,19.335,35.075,20.385,34.95,20.556z
	 M33.733,7.921c0.144,0.152,0.78,0.501,1.11,1.01c0.334,0.514,0.361,1.188,0.373,1.201c0.148,0.734,0.337,1.936-0.091,2.325
	c-0.115,0.105-0.294,0.234-0.499,0.383c-0.628,0.454-1.443,1.044-1.647,1.746c-0.36-0.521-0.868-0.913-1.156-1.107
	c0.428-0.995,0.323-2.053-0.047-2.83c0.192-0.402,0.689-1.573,0.525-2.624c0.173,0.015,0.394-0.016,0.627-0.049
	C33.199,7.937,33.49,7.896,33.733,7.921z M27.29,3.197c1.62,0.782,5.023,2.325,6.175,4.445c-0.19,0.008-0.388,0.036-0.574,0.063
	c-0.224,0.031-0.436,0.062-0.578,0.048c0,0-0.257-0.544-0.55-0.837c-0.418-0.419-0.877-0.634-1.316-0.746
	c-0.453-0.294-1.278-0.932-1.802-1.588c-0.178-0.223-0.702-0.724-0.702-0.724c0.184,0.405,1.191,1.567,1.937,2.217
	c-0.264-0.023-0.881-0.019-0.952-0.02c-0.218-0.415-0.585-0.587-1.034-0.761c-0.199-0.494-0.656-0.881-1.133-0.969
	c-0.221-0.434-0.917-1.039-1.668-1.606C25.596,2.677,26.238,2.689,27.29,3.197z M24.681,3.1c0.778,0.591,1.477,1.201,1.59,1.445
	c-0.621,0.123-1.595,0.095-2.201-0.095c-0.409-0.128-2.509-0.216-2.509-0.216s1.673,0.241,2.427,0.477
	c0.377,0.118,0.912,0.184,1.431,0.184c0.297,0,1.14-0.041,1.14-0.041c0.248,0,0.518,0.173,0.695,0.415
	c-0.825-0.057-2.241,0.257-2.95,0.651c-0.848,0.471-1.259,1.164-1.586,1.727c-1.068-0.582-5.191-0.367-7.06,0.408
	c-0.921,0.381-2.094,1.995-2.094,1.995c-0.096,0.041-0.222,0.072-0.393-0.235c-0.171-0.308-0.504-0.479-0.504-0.479
	c0.049,0.062,0.396,0.58,0.433,0.657c0.064,0.137,0.163,0.347,0.379,0.351c-0.434,0.834-0.657,1.601-0.71,1.795
	c-2.662,2.089-2.417,2.932-1.936,3.616c0.003,0.004,0.005,0.008,0.008,0.013c-0.1,0.039-0.194,0.116-0.268,0.254
	c-0.106,0.111-0.758,0.125-1.148,0.134c-0.488,0.01-1.098,0.053-1.506,0.152c-0.021-1.032,0.168-2.958,0.761-3.472
	c0,0,0.47-0.129,0.596-0.129c0.44,0,1.717-0.771,1.717-0.771c-0.092,0-0.22,0.05-0.477,0.153c-0.425,0.172-1.254,0.498-1.64,0.349
	c0.263-0.616,1.107-2.103,2.326-3.055c1.316-1.028,2.987-1.642,2.987-1.642s1.028-1.05,2.326-1.915
	c1.253-0.835,2.79-1.35,2.991-1.148c0,0,0.463,0.54,0.456,0.678c-0.868,0.111-2.506,0.711-2.583,0.726c0,0,0.804-0.116,0.99-0.159
	c0.963-0.218,2.511-0.445,2.921-0.4c0.41,0.046,1.755,0.126,1.755,0.126c-0.738-0.24-1.938-0.416-2.805-0.326
	c-0.005-0.226-0.341-0.645-0.375-0.692C20.374,4.26,23.003,2.455,24.681,3.1z M14.486,2.118c0.812-0.146,1.703-0.052,2.683-0.143
	c-0.385,0.44-1.11,0.998-2.06,1.107c-0.698,0.081-2.253,0.209-3.219-0.083C12.761,2.717,13.813,2.241,14.486,2.118z M5.073,6.974
	c0.589-0.608,1.264-1.491,1.635-1.788c0.479-0.383,0.889-0.57,1.446-0.693c-0.541,0.663-0.96,1.239-0.795,1.691l0.019-0.007
	c-0.625,0.527-0.919,0.93-1.309,1.358c-0.426,0.468-0.71,1.117-0.71,1.117c0.9-1.2,4.041-4.516,6.559-4.04
	c0.299,0.106,0.491,0.276,0.554,0.49c0.064,0.217-0.292,0.851-0.36,0.935c-0.408,0.505-0.966,1.196-0.966,1.656
	c0,0-0.342,0.14-0.539,0.205c-0.722,0.235-1.344,0.44-1.583,0.846c-0.487,0.827-1.067,1.296-1.517,1.61c0,0,0.696-0.28,0.889-0.448
	c0.349-0.305,0.534-0.461,0.864-1.024c0.187-0.317,0.764-0.506,1.433-0.725c0.706-0.231,1.341-0.437,2.014-0.966
	c0.189-0.148,0.513-0.751,0.513-0.751c-0.466,0.578-1.12,0.915-1.786,1.169c0.069-0.379,0.576-1.011,0.892-1.401
	c0.069-0.085,0.499-0.882,0.41-1.184c-0.062-0.21-0.238-0.499-0.747-0.677c-1.507-0.286-3.112,0.613-4.389,1.646
	C7.577,5.623,8.692,4.266,8.76,4.183c0.046-0.021,0.476-0.423,1.331-0.748c0.854-0.325,2.658,0.021,3.4,0.021
	c0.607,0,1.204-0.051,1.649-0.103c1.193-0.137,2.043-0.906,2.404-1.412c0.835-0.433,3.173-0.319,3.648,0.052
	c-0.361,0.149-0.718,0.351-1.069,0.553c-0.469,0.268-0.912,0.52-1.337,0.637c-0.987,0.27-2.275,0.803-2.81,1.819
	c0,0,0.532-0.311,0.73-0.491c0.592-0.545,1.452-0.873,2.151-1.063c0.46-0.126,0.939-0.399,1.402-0.664
	c0.506-0.289,1.026-0.583,1.527-0.694c0.755-0.079,1.587,0.137,1.811,0.471c-1.66,0.132-3.471,1.369-3.954,1.719
	c-1.228-0.581-5.179,2.825-5.64,3.227c-2.792,0.727-5.132,3.792-5.484,5.04c-0.789,0.769-0.935,3.061-0.898,3.878
	c-0.003,0.001-0.008,0.003-0.01,0.005c-0.272,0.148-0.633,0.623-1.008,1.219c-1.232-0.937-0.789-3.719-0.393-6.187
	c0.456-2.829,3.14-4.303,3.673-4.57c0,0-0.829,0.309-1.191,0.552c-0.917,0.614-2.014,1.458-2.569,3.227
	c-0.742-0.068-1.295-0.02-1.708,0.101c-0.183,0.054-0.437,0.1-0.437,0.1c-0.129-0.042-0.233-0.15-0.292-0.304
	C3.573,10.273,3.638,9.86,3.873,9.44C4.284,8.71,4.829,7.738,5.073,6.974z M1.634,11.515c0.047-0.378,0.357-1.031,0.667-1.152
	c-0.036,0.318,0.174,1.505,0.39,1.841c0,0-0.131-0.708-0.194-1.3c-0.126-1.186,1.186-2.554,2.077-3.4
	C4.305,8.113,3.93,8.782,3.622,9.33c-0.267,0.473-0.336,0.96-0.191,1.336c0.073,0.188,0.196,0.329,0.352,0.414
	c-0.532,0.409-0.678,1.021-0.674,1.505c0.002,0.406-0.323,0.937-0.751,0.948c-0.073-0.017-0.143-0.062-0.21-0.137
	C1.84,13.053,1.604,12.189,1.634,11.515z M0.665,13.178c0.154-0.786,0.51-1.253,0.668-1.367c0.04,0.577,0.401,1.715,0.726,1.874
	c-0.193,0.213-0.896,0.712-1.168,1.825C0.425,14.975,0.511,13.966,0.665,13.178z M4.358,21.236c-0.667-0.08-2.372-2.428-2.599-2.916
	c0.589,0.563,1.401,0.979,1.854,1.085c0,0-0.563-0.227-1.098-0.707c-0.535-0.48-0.85-0.686-1.188-1.199
	c-0.34-0.514-0.265-1.646-0.183-1.979c0.297-1.213,0.966-1.665,1.402-1.847s0.73-0.406,0.77-1.061
	c0.039-0.655,0.31-1.876,2.729-1.675c-0.04,0.157-0.478,3.509-0.408,4.736c0.056,0.983,0.206,1.756,0.824,2.208
	c-0.162,0.268-0.325,0.554-0.483,0.843c-0.627-0.192-1.139-0.475-1.436-0.976c-0.727-1.229-0.296-3.661-0.194-4.037
	s0.233-1.285,0.233-1.285c-0.022,0.092-0.061,0.221-0.106,0.377c-0.217,0.737-0.586,1.993-0.567,3.202
	c-0.445-0.378-1.343-0.609-2.07-0.569c0,0,0.527,0.158,0.709,0.181c0.719,0.086,1.353,0.434,1.349,1.038s-1.004,0.638-1.428,0.341
	c-0.167-0.117-0.672-0.404-0.672-0.404c0.625,0.645,1.115,0.825,1.467,0.825c0.204,0,0.361-0.061,0.472-0.125
	c0.125-0.074,0.223-0.173,0.296-0.282c0.071,0.286,0.172,0.56,0.32,0.811c0.324,0.548,0.827,0.932,1.495,1.147
	c-0.479,0.896-0.892,1.764-1.061,2.126C4.655,21.209,4.518,21.256,4.358,21.236z M5.266,21.358c0.736-1.579,2.083-4.161,2.608-4.448
	c0.331-0.181,0.984-0.195,1.561-0.207c0.324-0.007,0.618-0.015,0.868-0.047c-0.102,0.527-0.147,1.328-0.059,1.965
	c0.044,0.318,0.47,0.625,0.47,0.625c-0.327-0.491-0.28-1.944-0.121-2.649c0.209-0.06,0.555-0.311,0.612-0.3
	c0.11,0.02,0.246,0.045,0.403,0.038c-0.024,0.396,0.081,0.917,0.213,1.341c0.087,0.279,0.501,0.504,0.501,0.504
	c-0.217-0.348-0.5-1.361-0.438-1.895c0.211-0.065,0.362-0.297,0.612-0.581c0.224-0.253,0.734-0.284,1.035-0.256
	c0.885,0.086,1.522,0.775,2.231,0.642c0.709-0.134,0.993-0.644,1.492-1.225c0.115,0.623,0.582,1.435,2.05,2.053
	c0,0-0.345-0.327-0.511-0.421c-1.094-0.617-1.281-1.445-1.297-1.934c0.071-0.287,0.234-0.585,0.362-0.833
	c0.103-0.197,0.231-0.379,0.394-0.502c0.042-0.032,0.22,0.218,0.29,0.375c0.323,0.732,0.98,1.543,1.729,1.901
	c0,0-0.432-0.499-0.6-0.638c-0.529-0.435-0.76-1.02-0.951-1.539c-0.05-0.136-0.01-0.447,0.036-0.479
	c0.329-0.229,0.657-0.433,0.94-0.496c0.101-0.022,1.239,0.073,1.845,0.333c0.486,0.208,0.861,0.343,1.186,0.343
	c0.374,0,0.682-0.179,1.021-0.631c0.618-0.824,0.711-1.335,0.66-1.941l-0.273,0.022c0.045,0.54-0.039,1-0.604,1.755
	c-0.527,0.702-0.892,0.623-1.88,0.2c-0.658-0.282-1.291-0.35-1.677-0.36c0.681-1.279,0.453-2.379,0.257-2.922
	c-0.188-0.519-0.498-0.94-0.772-1.05c0,0,0.339,0.655,0.516,1.143c0.182,0.501,0.343,1.628-0.293,2.816
	c-0.035,0.008-1.562,0.349-2.087,1.574c-0.163,0.38-1.386,1.977-1.898,2.043c-0.605,0.08-1.426-0.541-1.674-0.598
	c-0.599-0.139-1.093-0.114-1.464,0.065c0.096-0.511,0.428-1.054,1.722-1.334c1.864-0.403,1.973-1.355,2.255-2.811
	c0,0,0.158-0.795,0.214-1.026c0.767,0.056,1.762,0.333,1.59,0.231c-0.171-0.102-1.202-0.349-1.564-0.376
	c0.093-0.346,0.222-0.684,0.281-0.881c0.06-0.196,0.171-0.385,0.171-0.385c-0.279,0.239-0.458,0.569-0.639,1.256
	C16.224,9.8,15.89,9.795,15.66,9.795c-0.917,0-1.197,0.774-1.401,1.34c-0.06,0.164,0.082-0.321,0.521-0.801
	c0.223-0.244,0.55-0.385,0.796-0.385c0.302,0,0.696,0.045,0.965,0.06c-0.053,0.227-0.2,0.93-0.2,0.93
	c-0.28,1.444-0.434,2.241-2.121,2.605c-1.672,0.361-1.916,1.193-1.967,1.808c-0.014,0.013-0.201,0.347-0.458,0.438
	c-0.274,0.097-0.62-0.052-0.649-0.056c-0.027-0.043-0.057-0.088-0.091-0.136c-0.32-0.455-0.803-1.14,1.887-3.25
	c0.757-0.101,0.925,0.509,0.932,0.535c0,0,0.177-0.396-0.12-0.617c-0.159-0.119-0.379-0.208-0.68-0.202
	c0.211-0.688,1.05-3.08,2.688-3.758C17.756,7.479,22,7.361,22.667,7.937c0.211,0.212,0.216,0.521,0.192,0.711
	c-0.359,0.331-0.729,1.022-1.101,2.065c0,0,0.354-0.176,0.402-0.297c0.35-0.895,0.638-1.329,0.85-1.538l0.357-0.197
	c0.621-0.163,1.917-0.502,2.679,2.042c0.06,0.119,0.07,0.227,0.031,0.328c-0.087,0.23-0.396,0.357-0.398,0.359
	c0,0,0.522,0.083,0.654-0.261c0.001-0.002,0.001-0.003,0.001-0.005c0.453,0.032,2.175,0.275,3.467,2.173
	c0,0-0.307-0.643-0.428-0.788c-1.294-1.563-2.517-1.626-3.002-1.657c-0.007-0.086-0.03-0.17-0.072-0.25
	c-0.247-0.827-0.555-1.371-0.884-1.724c0.299-0.231,1.247-0.682,1.834-0.473c0.312,0.111,0.512,0.668,0.579,1.151
	c-0.148-0.023-0.938-0.11-0.938-0.11c0.308,0.17,0.467,0.256,1.038,0.319c0.57,0.063,0.959-0.272,0.959-0.272
	c-0.24,0.1-0.561,0.117-0.878,0.086c-0.001-0.216,0.035-0.606-0.004-0.718c0.096-0.069,0.277-0.167,0.56-0.169h0.012
	c0.46,0,1.229,0.258,2.339,1.432c0,0.001,0,0.003,0,0.005c0,0,1.431,1.336,0.39,3.139c-0.074-0.697-0.355-1.426-0.779-1.915
	c-0.426-0.489-0.985-0.65-0.985-0.65c0.663,0.486,1.598,1.789,1.501,3.042c0,0-0.24,0.514-0.383,0.94
	c-0.075,0.229-0.102,0.431-0.091,0.657c-0.319,0.052-0.632,0.207-0.933,0.364c-0.3,0.156-0.583,0.303-0.861,0.347
	c-0.891,0.136-2.255,0.184-2.497-0.142c-0.549-0.737-1.069-1.106-1.594-1.129c-0.71-0.03-1.295,0.583-1.854,1.207
	c-0.075-0.786-1.132-1.48-1.877-1.967c-0.225-0.146-0.711-0.161-0.711-0.161c0.129,0.107,0.462,0.184,0.693,0.336
	c0.816,0.534,1.914,1.393,1.562,2.165c-0.347,0.384-0.561,0.748-0.747,1.069c-0.355,0.61-0.591,1.014-1.482,1.103
	c-1.166,0.115-3.504-0.802-3.721-0.939c-0.216-0.136-0.714-0.561-0.714-0.561c0.437,0.777,2.635,1.786,4.163,1.786
	c0.104,0,0.204-0.004,0.3-0.014c1.03-0.103,1.322-0.603,1.691-1.237c0.184-0.315,0.392-0.673,0.73-1.045
	c0.08-0.086,0.158-0.174,0.237-0.262c0.541-0.606,1.105-1.229,1.718-1.206c0.437,0.019,0.89,0.353,1.386,1.021
	c0.02,0.026,0.047,0.049,0.073,0.072c-0.693,0.756-1.919,1.521-1.932,1.53c0,0,0.452,0.04,0.818-0.224
	c0.429-0.308,0.972-0.736,1.355-1.167c0.73,0.284,2.244,0.066,2.442,0.037c0.324-0.05,0.641-0.215,0.946-0.374
	c0.289-0.15,0.564-0.289,0.833-0.335c0.037,0.244,0.104,0.529,0.193,0.906c0.034,0.144,0.071,0.302,0.111,0.477
	c0.169,0.729-0.06,1.461-0.242,2.05c-0.13,0.414-0.24,0.771-0.197,1.053c0.051,0.332,0.245,0.59,0.45,0.863
	c0.224,0.296,0.477,0.633,0.624,1.149c0.204,0.717,0.16,1.436-0.061,1.743c-0.221,0.312-1.28-0.306-1.723-0.626
	c-0.604-0.438-1.46-0.588-2.408-0.425c-0.929,0.161-1.839,0.62-2.163,1.092c-0.167,0.243-0.343,0.558-0.216,0.83
	c0.157,0.34,0.718,0.516,2.066,0.647c0.962,0.094,1.408,0.666,1.882,1.271c0.455,0.582,0.928,1.183,1.866,1.259
	c0.655,0.053,1.719,0.224,2.002,0.369c0.342,0.18-1.087,0.89-2.671,0.448c-1.165-0.325-2.187-0.366-3.088-0.403
	c-1.55-0.062-2.67-0.107-3.617-1.529c-1.522-2.28-1.018-5.6-0.63-6.536c0.485-1.17,2.728-1.166,3.609-1.604
	c0.345-0.171,0.513-0.463,0.513-0.463c-0.609,0.63-3.226,0.764-4.11,1.178c-0.884,0.415-1.576,1.104-1.576,1.104
	c-0.621,0.576-1.8,0.586-2.311,0.463c-0.576-0.748-1.203-0.769-1.809-0.787c-0.467-0.015-0.95-0.029-1.452-0.371
	c-0.28-0.192-0.429-0.392-0.442-0.596c-0.017-0.28,0.181-0.688,0.435-0.933c0.095-0.092,0.497-0.288,0.563-0.354
	c0,0-0.479,0.059-0.684,0.25c-0.204,0.189-0.427,0.438-0.527,0.699c-0.134-0.017-0.702,0.025-0.977-0.083
	c0.029-0.189-0.032-0.583-0.137-1.129c-0.104-0.546-0.684-1.513-0.53-1.23c0.155,0.282,0.46,1.828,0.337,2.44
	c-0.097,0.483-0.951,1.934-1.445,1.936c-0.774-0.155-2.073,0.104-2.262,0.259c-0.188,0.153-0.541-0.603-0.598-0.927
	c-0.104-0.587-0.275-1.019-0.473-1.52c-0.084-0.215-0.521-0.6-0.521-0.6c0.09,0.255,0.181,0.483,0.266,0.701
	c0.193,0.486,0.359,0.907,0.458,1.466c0.139,0.789,0.594,1.084,0.531,1.479c-0.04,0.25-0.718,0.236-1.185,0.296
	c-0.378,0.05-0.732,0.098-0.997,0.193c-0.531-0.3-0.795-1.501-0.707-2.168c0,0-0.197,0.691-0.179,0.908
	c0.056,0.651,0.461,1.3,0.547,1.419c-0.12,0.103-0.299,0.461-0.444,0.728c-0.206,0.376-0.352,0.617-0.485,0.551
	c-0.509-0.254-0.9-0.286-1.158,0.09C4.772,24.044,5.075,22.157,5.266,21.358z M5.99,26.461c-0.323-0.045-0.638-1.068-0.669-1.125
	c0,0,0.033,0.273,0.084,0.538c0.051,0.266,0.15,0.693,0.448,0.776c0.043,0.012,0.395,0,0.451-0.021
	c-0.074,0.398-0.113,0.787-0.113,1.131c-0.556-0.444-1.094-1.026-1.309-1.693c-0.203-0.622-0.104-1.331,0.015-1.691
	c0.456-0.564,0.809-0.732,1.168-0.553c0.381,0.189,0.617-0.246,0.848-0.665c0.166-0.305,0.354-0.649,0.579-0.742
	c0.235-0.098,0.622-0.148,0.996-0.197c0.359-0.047,0.705-0.093,0.973-0.18c-0.155,0.503-0.013,0.962,0.454,1.507
	c0.558,0.651,0.936,3.596,0.942,2.518c0.005-1.079-0.455-2.369-0.734-2.695c-0.565-0.659-0.528-1.079-0.282-1.536
	c0.073-0.069,0.138-0.15,0.206-0.236c0.287-0.371,0.644-0.833,2.162-0.533c0.683,0,1.483-1.4,1.693-1.996
	c0.32,0.118,0.544,0.093,0.747,0.071c0.099-0.011,0.277,0.047,0.279,0.075c0.017,0.272,0.182,0.524,0.489,0.752
	c-0.044,0.265-0.156,1.098,0.036,1.638c0.04-0.004-0.011-0.252,0.029-0.612c0.033-0.301,0.161-0.705,0.186-0.865
	c0.503,0.279,0.986,0.296,1.418,0.31c0.603,0.019,1.125,0.035,1.63,0.718c0.365,0.493,0.585,0.792,0.726,1.005
	c0.209,0.313,0.604,0.671,0.604,0.671c-0.157-0.518-0.199-0.606-0.906-1.564c0.123,0.013,0.26,0.022,0.409,0.022
	c0.598,0,1.35-0.136,1.853-0.603c0,0,0.897-0.692,0.867-0.612c-0.208,0.541-0.672,2.549-0.273,4.62
	c-0.504,0.271-1.264,0.519-2.042,0.02c-0.777-0.5-1.821-1.041-2.471-2.061c-0.275-0.434-1.619-0.975-2.425-0.553
	c-0.806,0.421-2.151-0.031-2.242-0.045c0,0,0.291,0.175,0.563,0.295c0.274,0.12,1.053,0.15,1.13,0.144
	c-0.281,0.314-0.498,0.83-0.338,1.656c-0.613-0.086-0.956,0.057-1.1,0.372c-0.144,0.314-2.207-2.142-2.207-2.142
	c0.245,0.735,1.837,2.332,1.898,2.502c0.063,0.169-0.215,0.821-0.393,1.508c-0.209,0.802-0.468,1.253-0.772,1.342
	c-0.432,0.128-1.921-1.263-1.921-1.263c-0.577-0.533-0.819-1.176-1.013-1.692c-0.164-0.436-0.283-0.75-0.548-0.837
	c-0.157-0.052-0.338-0.009-0.553,0.132c-0.375,0.243-0.76,1.506-1.125,2.116C6.293,26.423,6.089,26.476,5.99,26.461z M15.632,24.386
	c-1.47,0.017-1.246-0.847-1.234-0.956c0.048-0.507,0.307-0.879,0.764-1.079c0.712-0.309,1.597-0.127,2.085,0.45
	c0.489,0.576,0.563,0.599,0.455,0.866C17.521,24.115,16.552,24.376,15.632,24.386z M16.695,28.065
	c-0.43,0.579-4.073,2.324-6.04,1.195c-1.018-0.583-1.672-1.428-1.975-1.811c-0.559-0.701-1.135-1.452-1.135-1.452
	c0.017,0.197,0.659,0.985,0.607,1.088c-0.052,0.103-1.305-0.245-1.305-0.245c0.293,0.13,0.47,0.194,1.002,0.375
	c0.531,0.18,1.5,1.515,1.958,1.938c-0.435,0.227-1.171,0.227-1.82-0.172c-0.245-0.244-0.543-0.583-0.716-0.929
	c-0.166-0.33-0.515-0.606-0.515-0.606c0.065,0.065,0.188,0.307,0.304,0.542c0.131,0.26,0.276,0.546,0.433,0.793
	c-0.362-0.035-0.893-0.342-1.021-0.725c-0.094-1.154,0.405-3.218,1.234-3.756c0.14-0.09,0.248-0.124,0.319-0.102
	c0.141,0.047,0.25,0.338,0.377,0.675c0.194,0.514,0.459,1.219,1.083,1.797c0,0,1.601,1.491,2.184,1.324
	c0.414-0.122,0.719-0.609,0.96-1.537c0.581-2.235,0.609-2.229,2.127-1.924c0,0,1.293,0.129,1.745,0.028
	c0.715-0.161,1.229-0.515,1.571-0.781c0.516,0.47,1.1,0.806,1.739,1.17c0,0,0.18,0.379,0.078,0.478
	c-0.669,0.648-2.168,1.561-2.871,1.832c-0.704,0.271-1.814,0.477-2.107,0.939c0,0,0.503-0.113,0.739-0.221
	c0.394-0.179,0.415-0.1,1.437-0.452c1.024-0.354,3.028-1.9,3.264-2.047c0.236-0.147,1.396-0.351,1.697-0.508
	c0.169,0.734,0.451,1.468,0.899,2.139c0.114,0.17,0.23,0.319,0.351,0.458C21.903,27.984,18.352,28.627,16.695,28.065z M25.38,34.505
	c-3.198-1.432-4.943-3.532-5.731-4.803c-0.252-0.406-0.188-0.984-0.031-0.997c1.649-0.13,3.44-0.458,4.114-0.708
	c0.945,0.789,2.042,0.837,3.27,0.886c0.871,0.035,3.257,0.311,3.538,0.382c1.221,0.316,1.765-0.26,1.774,0.04
	c0.068,2.189-1.347,4.037-2.144,4.858C29.14,35.227,28.558,35.612,25.38,34.505z M33.654,33.686
	c-0.845,1.062-2.482,1.009-3.307,0.902c0.034-0.035,0.068-0.066,0.104-0.104c1.138-1.173,2.563-3.735,2.343-5.551
	c0.225-0.135,0.319-0.391,0.496-0.543c0.292-0.251,0.629-0.402,0.804-0.598c0.064-0.071,0.137-0.152,0.199-0.215
	c0.272,0.621,1.067,0.941,1.103,0.956C35.593,30.734,34.843,32.191,33.654,33.686z M38.365,26.215
	c-0.213,0.352-0.511,0.73-0.636,0.8c-0.126,0.067-0.205-0.548-0.073-1.313c0.054-0.307,0.116-0.67,0.179-1.107
	c0.103-0.719,0.308-1.323,0.507-1.909c0.26-0.762,0.505-1.482,0.418-2.262c0,0-0.317,1.437-0.494,1.96
	c-0.194,0.569-0.596,1.427-0.702,2.172c-0.062,0.434-0.123,0.795-0.177,1.1c-0.144,0.838,0,1.654-0.393,1.915
	c-0.373,0.248-1.017,0.678-1.35,0.609s-0.866-0.436-1.043-0.804c0.222-0.238,0.42-1.291,0.413-1.377
	c0.4-0.54,0.804-1.579,0.799-2.468c1.81-1.941,1.673-3.355,1.046-4.486c0.107-0.093,0.644-0.642,0.807-0.625
	c0.31,0.034,0.771,0.581,1.452,1.715C39.393,22.179,39.357,24.573,38.365,26.215z"/>
</svg>
