<?xml version="1.0" encoding="utf-8"?>
<!-- Generator: Adobe Illustrator 16.0.0, SVG Export Plug-In . SVG Version: 6.00 Build 0)  -->
<!DOCTYPE svg PUBLIC "-//W3C//DTD SVG 1.1//EN" "http://www.w3.org/Graphics/SVG/1.1/DTD/svg11.dtd">
<svg version="1.1" id="Layer_1" xmlns="http://www.w3.org/2000/svg" xmlns:xlink="http://www.w3.org/1999/xlink" x="0px" y="0px"
	 width="470px" height="90px" viewBox="0 0 470 90" enable-background="new 0 0 470 90" xml:space="preserve">
<g>
	<g>
		<radialGradient id="SVGID_1_" cx="81.4731" cy="50.7031" r="27.5604" gradientUnits="userSpaceOnUse">
			<stop  offset="0.33" style="stop-color:#ACCDEC"/>
			<stop  offset="0.66" style="stop-color:#FFFFFF"/>
		</radialGradient>
		<path fill="url(#SVGID_1_)" d="M50.588,24.653l-0.014-0.052l0.098,0.053C50.644,24.654,50.615,24.653,50.588,24.653z"/>
		<radialGradient id="SVGID_2_" cx="81.5513" cy="50.5933" r="27.5518" gradientUnits="userSpaceOnUse">
			<stop  offset="0.33" style="stop-color:#ACCDEC"/>
			<stop  offset="0.66" style="stop-color:#FFFFFF"/>
		</radialGradient>
		<path fill="url(#SVGID_2_)" d="M65.134,28.231c0.242,0.054,0.471,0.104,0.68,0.08c0.737-0.083,1.408,0.543,1.497,0.871
			c0.093,0.343,0.292,1.155,0.292,1.155c0.271-0.541-0.04-1.683-0.521-2.494c1.208-0.836,2.136-1.13,3.148-0.29
			c0,0-0.23-0.652-0.873-0.867c-0.645-0.214-1.969,0.152-2.882,0.818c-0.335,0.242-0.842,0.198-1.208,0.116
			c-1.281-0.283-2.678-1.331-2.995-1.9c0,0,0.235,0.814,0.612,1.122C63.582,27.412,64.226,28.031,65.134,28.231z"/>
		<radialGradient id="SVGID_3_" cx="81.5488" cy="50.5947" r="27.5507" gradientUnits="userSpaceOnUse">
			<stop  offset="0.33" style="stop-color:#ACCDEC"/>
			<stop  offset="0.66" style="stop-color:#FFFFFF"/>
		</radialGradient>
		<path fill="url(#SVGID_3_)" d="M66.929,43.75c0.72,0,1.473-0.349,2.204-1.394c0.464-0.662,0.767-1.326,1.032-1.911
			c0.494-1.081,0.622-2.095,1.691-2.431c0.355-0.111,1.57-0.585,1.57-0.585c-2.571,0-3.153,1.278-3.828,2.758
			c-0.268,0.588-0.545,1.197-0.975,1.811c-1.015,1.449-1.86,1.526-2.85,1.007c-0.238-0.124-1.488-0.337-1.488-0.337
			S66.083,43.75,66.929,43.75z"/>
		<radialGradient id="SVGID_4_" cx="81.5498" cy="50.5962" r="27.5528" gradientUnits="userSpaceOnUse">
			<stop  offset="0.33" style="stop-color:#ACCDEC"/>
			<stop  offset="0.66" style="stop-color:#FFFFFF"/>
		</radialGradient>
		<path fill="url(#SVGID_4_)" d="M94.238,36.746c-0.024-9.262-3.712-12.963-6.677-15.938c-0.482-0.485-0.941-0.945-1.372-1.413
			c-0.415-1.43-1.437-3.346-3.267-4.658c-2.593-5.335-11.459-9.528-14.99-11.232c-3.079-1.487-4.237-1.203-5.546-1.063
			c-0.737,0.079-1.752,0.292-2.598-0.265c-0.971-0.638-2.86-1.451-4.911-1.333c-1.64-0.768-7.796-0.432-9.822,0.208
			c-2.575-0.173-4.595-0.327-6.895,0.025c-2.3,0.35-4.542,1.639-6.518,2.471c-2.443,0.311-5.474,1.483-6.504,2.149
			c-2.457,0.644-3.929,1.856-5.614,3.205c-0.765,0.611-2.537,2.564-4.148,4.366c-2.428,1.989-4.605,5.539-4.943,6.5
			c-0.822,0.758-2.06,1.856-2.207,2.875c-2.816,2.764-3.207,8.846-1.9,10.483c0.04,2.417,0.625,4.398,1.265,5.225
			c0.34,2.041,5.056,8.361,7.37,8.64c0.251,0.03,0.496,0.008,0.733-0.034c-0.418,1.985-0.371,3.798-0.303,5.976
			c0.037,1.148-0.227,2.65,0.118,3.783c0.395,1.297,2.474,4.35,3.587,5.107c1.031,1.191,2.281,2.062,3.738,2.332
			c2.579,1.451,6.115,0.782,6.216,0.775c0.896,0.604,2.153,0.849,3.563,0.849c3.997-0.001,9.215-1.966,10.881-3.257
			c0.75,0.255,1.803,0.301,3.167,0.386c1.364,0.085,1.983,2.643,3.46,4.564l-0.049-0.007c-0.173,1.554-0.114,4.876,1.343,6.333
			c1.139,1.139,5.227,10.886,5.227,10.886c-0.758-3.542-2.778-9.537-4.158-10.916c-0.758-0.758-1.225-3.403-1.232-4.925
			c2.39,2.695,6.014,5.688,11.212,8.015c0.256,0.09,0.492,0.167,0.735,0.25c-0.063,0.059,0.133,0.751-0.215,1.857
			c-0.347,1.107,0.259,6.5,0.259,6.5c-0.412-2.886,1.208-7.785,1.578-7.828l0-0.007c1.994,0.604,3.495,0.9,4.718,0.9
			c1.476,0,2.553-0.438,3.624-1.269c0.486,0.102,1.643,0.309,3.053,0.309c2.177,0,4.936-0.498,6.657-2.66
			c2.868-3.604,4.685-7.132,4.254-12.465c2.87-0.668,5.088-2.239,6.579-4.699C97.344,51.736,95.764,41.765,94.238,36.746z
			 M86.677,21.688c0.253,0.253,0.509,0.512,0.766,0.774c-0.059,0.536-0.081,1.279-0.057,2.079l-0.001-0.001
			c-0.004,0.015-0.009,0.026-0.013,0.036c-0.085-0.039-0.226-0.14-0.327-0.21c-0.173-0.125-0.369-0.265-0.58-0.349l-0.007,0.018
			c0.043-0.836-0.054-1.798-0.217-2.79C86.386,21.393,86.527,21.538,86.677,21.688z M86.391,24.681
			c0.096,0.057,0.194,0.123,0.292,0.192c0.236,0.169,0.478,0.342,0.73,0.342c0.002,0,0.003,0,0.005,0
			c0.08,1.287,0.282,2.601,0.648,3.335c0,0,0.223-1.254,0.124-1.929c-0.173-1.158-0.219-2.557-0.169-3.551
			c2.545,2.724,4.969,6.275,4.969,13.77l0.029,0.183c0.389,1.266,0.782,2.873,1.092,4.651c-0.815-1.255-1.476-2.072-2.053-2.523
			c1.291-3.195-0.613-7.608-1.768-10.276c-0.169-0.39-1.014-0.792-1.014-0.792c0.119,0.292,0.271,0.644,0.441,1.04
			c1.031,2.382,2.91,6.74,1.8,9.7c-0.138-0.057-0.272-0.095-0.402-0.11c-0.702-0.079-2.043,1.328-2.236,1.499
			c-0.194-0.306-0.401-0.605-0.615-0.895c-0.72-0.973-1.375-1.01-1.798-0.872c-0.859,0.283-1.446,1.543-1.746,2.61
			c-0.405-0.459-0.885-0.877-1.409-1.222c0.294-0.785,0.253-1.876,0.003-3.013l0.006,0.001c0.753-2.435,1.951-3.967,3.464-4.432
			c1.287-0.396,2.518,0.071,3.029,0.481c0,0-1.789-1.515-3.212-1.078c-1.087,0.334-2.543,1.309-3.573,3.977
			c-0.445-1.38-1.785-2.99-2.142-4.278c-0.358-1.288,2.099-3.292,3.592-4.373c0.486-0.352,0.905-0.654,1.193-0.916
			C86.062,25.848,86.284,25.32,86.391,24.681z M85.829,44.833c-0.018-0.167-0.046-2.279-0.628-3.152
			c0.211-1,0.772-2.417,1.461-2.645c0.333-0.11,0.701,0.11,1.101,0.65c1.866,2.524,3.146,5.726-1.018,10.454
			c-0.06-0.316-0.154-0.607-0.297-0.855c-0.481-0.843-0.509-1.918-0.536-3.056c-0.008-0.247-0.017-0.497-0.028-0.746
			c0.123,0.025,0.538,0.17,0.952,0.319c0.488,0.176,0.764,0.775,0.764,0.775s-0.307-0.769-0.812-1.112
			C86.316,45.148,85.854,44.837,85.829,44.833z M83.619,56.724c-0.581,0.485-4.487,0.492-6.639,0.005
			c-0.803-0.182-2.1-0.322-2.1-0.322c0.859,0.502,4.112,1.228,6.647,1.228c0.826,0,2.589-0.204,2.023,0.928
			c-0.564,1.13-2.182,2.397-2.533,2.671c-0.352,0.272-1.185-0.182-2.096-0.355c-0.892-0.169-2.001-0.379-3.527-0.503
			c-1.87-0.153-2.813-1.358-3.813-2.635c-1.113-1.422-2.266-2.894-4.722-3.133c-1.798-0.174-3.902-0.461-4.207-1.118
			c-0.119-0.26,0.02-0.666,0.441-1.279c0.546-0.793,2.318-1.844,4.524-2.225c1.995-0.342,3.778-0.04,5.018,0.859
			c1.281,0.928,2.854,1.251,4.22,2.078c0.92,0.557,2.141,0.777,3.349,0.607c0.696-0.098,1.424,0.065,2.166,0.036
			c1.743-0.07,2.608-0.676,3.111-1.563c-0.137,0.847-0.413,1.788-0.759,2.614C84.437,55.292,84.2,56.239,83.619,56.724z
			 M77.666,47.623c-0.368-1.288-1.008-2.138-1.523-2.822c-0.456-0.607-0.816-1.086-0.909-1.687c-0.077-0.5,0.157-1.252,0.427-2.121
			c0.439-1.415,0.987-3.176,0.567-5c-0.092-0.4-0.179-0.761-0.258-1.091c-0.48-2.023-0.66-2.78-0.306-3.842
			c0.323-0.968,0.578-1.378,1.069-2.146c0.46,0.286,1.995,0.743,2.769,2.224c-0.771,0.889-0.326,3.945-0.039,5.666
			c0,0-0.078-2.183,0.13-3.6c0.12-0.821,1.248-1.365,2.417,2.561c1.169,3.925-0.245,4.625-0.245,4.625
			c-0.854,1.065-1.131,2.092-0.942,5.782c0.171,3.317-0.332,5.035-0.771,5.973c-0.146,0.311-0.604,1.178-1.708,0.774
			c-1.105-0.403-0.649-0.903-0.377-1.683C78.243,50.458,78.202,49.5,77.666,47.623z M74.813,15.667
			c0.029-1.027-1.047-2.258-3.385-3.899c0.074,0,0.144,0,0.222,0c0.786-0.007,3.088,0.325,3.088,0.325
			c0.814,0.25,1.641,0.687,2.406,1.453c2.087,2.088,0.782,5.826,0.096,7.391c-0.101-0.158-0.202-0.311-0.312-0.454
			C77.188,18.765,75.838,16.77,74.813,15.667z M69.317,13.3c-0.589-0.202-0.834-0.272-1.213-0.392
			c-0.901-0.285-1.679-0.532-1.996-0.732c0,0,1.431,0.938,2.21,1.197c0.781,0.26,4.282,1.961,5.389,2.819
			c1.104,0.858,1.757,2.327,1.958,3.382c-2.023-2.021-3.854-3.042-5.403-2.998c-0.697,0.013-1.189,0.236-1.501,0.438
			c-0.356-0.6-0.835-0.905-1.255-1.054c-1.692-0.604-4.75,1.311-4.75,1.311c-1.671-1.476-3.495-1-4.464-0.745l-0.188,0.048
			c-0.057,0.014-0.114,0.049-0.17,0.071c-0.01-0.455-0.134-0.989-0.49-1.454l0.024-0.044c0.751-1.293,1.602-2.759,3.414-3.766
			c1.713-0.952,5.353-1.843,7.067-1.401c1.181,0.304,1.691,0.792,1.977,1.395C70.055,11.647,70.276,13.605,69.317,13.3z
			 M70.389,13.119c0.146-0.254,0.54-0.173,0.669-0.079c1.238,0.897,1.87,1.529,2.185,1.947c-0.818-0.486-1.731-0.889-2.63-1.229
			C70.438,13.692,70.242,13.374,70.389,13.119z M84.852,44.2c-0.739,1.007-2.27,2.71-2.363,4.379c0,0,0.337-0.969,0.849-1.741
			c0.453-0.687,1.314-1.349,1.54-1.623c-0.156,0.909,0.381,3.9,0.59,4.932c0.209,1.031-0.83,2.76-3.123,2.796
			c-1.061,0.016-1.919,0.186-1.338-1.558c0.36-1.085,0.57-2.742,0.442-5.246c-0.19-3.694,0.51-4.75,1.27-5.655
			C84.705,41.417,85.138,43.811,84.852,44.2z M82.081,15.396c0.326,0.347,1.776,1.142,2.529,2.304
			c0.761,1.17,0.824,2.708,0.852,2.738c0.337,1.673,0.767,4.414-0.208,5.302c-0.262,0.239-0.669,0.532-1.138,0.872
			c-1.43,1.034-3.291,2.382-3.754,3.98c-0.821-1.187-1.982-2.081-2.637-2.523c0.975-2.267,0.738-4.679-0.106-6.452
			c0.438-0.916,1.57-3.585,1.198-5.981c0.394,0.033,0.896-0.037,1.429-0.112C80.86,15.432,81.524,15.34,82.081,15.396z M67.39,4.626
			c3.691,1.782,11.451,5.3,14.077,10.133c-0.435,0.02-0.884,0.082-1.311,0.143c-0.51,0.072-0.991,0.139-1.317,0.109
			c0,0-0.585-1.238-1.253-1.907c-0.954-0.956-2-1.446-3.002-1.7c-1.034-0.671-2.914-2.126-4.107-3.621
			c-0.405-0.507-1.602-1.649-1.602-1.649c0.419,0.923,2.717,3.573,4.417,5.055c-0.601-0.054-2.008-0.044-2.172-0.045
			c-0.497-0.946-1.335-1.337-2.356-1.735C68.308,8.283,67.265,7.4,66.179,7.2c-0.502-0.988-2.089-2.368-3.799-3.662
			C63.526,3.44,64.99,3.468,67.39,4.626z M61.44,4.404c1.774,1.346,3.367,2.738,3.625,3.294c-1.417,0.279-3.637,0.216-5.02-0.216
			c-0.934-0.292-5.718-0.493-5.718-0.493s3.81,0.55,5.532,1.088c0.858,0.269,2.078,0.418,3.261,0.418
			c0.675,0,2.599-0.092,2.599-0.092c0.565,0,1.18,0.393,1.584,0.945c-1.882-0.13-5.11,0.587-6.726,1.485
			c-1.932,1.073-2.869,2.652-3.615,3.938c-2.437-1.326-11.834-0.838-16.096,0.928c-2.1,0.87-4.773,4.549-4.773,4.549
			c-0.221,0.094-0.507,0.166-0.896-0.536c-0.391-0.702-1.15-1.092-1.15-1.092c0.113,0.141,0.904,1.323,0.987,1.499
			c0.146,0.312,0.371,0.791,0.866,0.8c-0.988,1.901-1.499,3.65-1.621,4.093c-6.067,4.763-5.509,6.685-4.412,8.244
			c0.007,0.01,0.011,0.019,0.019,0.028c-0.228,0.09-0.443,0.265-0.612,0.58c-0.241,0.254-1.729,0.286-2.618,0.304
			c-1.112,0.024-2.502,0.122-3.434,0.348c-0.047-2.353,0.383-6.744,1.735-7.915c0,0,1.071-0.294,1.357-0.294
			c1.005,0,3.914-1.759,3.914-1.759c-0.209,0-0.5,0.114-1.086,0.35c-0.971,0.392-2.861,1.134-3.738,0.795
			c0.598-1.404,2.523-4.794,5.303-6.966c3-2.344,6.81-3.743,6.81-3.743s2.343-2.394,5.303-4.367C45.677,8.713,49.181,7.541,49.639,8
			c0,0,1.057,1.23,1.04,1.545c-1.98,0.253-5.712,1.624-5.89,1.656c0,0,1.833-0.266,2.256-0.362c2.194-0.498,5.723-1.016,6.659-0.912
			c0.936,0.104,4.003,0.286,4.003,0.286c-1.683-0.546-4.421-0.948-6.396-0.74c-0.012-0.518-0.777-1.472-0.854-1.58
			C51.621,7.05,57.615,2.933,61.44,4.404z M38.2,2.167c1.85-0.335,3.881-0.118,6.116-0.328c-0.879,1.005-2.533,2.275-4.696,2.525
			c-1.593,0.184-5.138,0.477-7.341-0.191C34.267,3.533,36.665,2.447,38.2,2.167z M16.739,13.236
			c1.342-1.388,2.881-3.397,3.727-4.075c1.093-0.874,2.027-1.299,3.299-1.581c-1.234,1.512-2.191,2.825-1.816,3.855l0.044-0.015
			c-1.424,1.201-2.094,2.119-2.983,3.095c-0.972,1.068-1.62,2.546-1.62,2.546c2.051-2.735,9.212-10.294,14.952-9.209
			c0.683,0.241,1.12,0.627,1.264,1.117c0.146,0.495-0.666,1.939-0.821,2.131c-0.93,1.152-2.203,2.728-2.203,3.777
			c0,0-0.781,0.318-1.228,0.465c-1.645,0.538-3.064,1.003-3.609,1.928c-1.11,1.887-2.433,2.954-3.459,3.673
			c0,0,1.589-0.638,2.026-1.021c0.795-0.695,1.216-1.052,1.971-2.334c0.425-0.723,1.741-1.152,3.266-1.652
			c1.608-0.527,3.056-0.995,4.59-2.2c0.431-0.338,1.171-1.714,1.171-1.714c-1.061,1.316-2.553,2.085-4.072,2.666
			c0.159-0.865,1.314-2.304,2.032-3.194c0.158-0.193,1.137-2.011,0.936-2.699c-0.142-0.481-0.543-1.137-1.701-1.542
			c-3.438-0.653-7.097,1.398-10.008,3.753c-0.048-0.849,2.495-3.941,2.65-4.131c0.103-0.049,1.084-0.963,3.033-1.705
			c1.95-0.74,6.061,0.049,7.752,0.049c1.384,0,2.745-0.117,3.761-0.234c2.717-0.313,4.657-2.065,5.479-3.22
			c1.905-0.987,7.234-0.727,8.317,0.121c-0.82,0.34-1.635,0.801-2.437,1.259c-1.068,0.61-2.077,1.187-3.049,1.452
			c-2.25,0.614-5.186,1.831-6.405,4.148c0,0,1.213-0.708,1.663-1.121c1.35-1.241,3.309-1.99,4.906-2.425
			c1.049-0.286,2.14-0.91,3.195-1.513c1.154-0.659,2.339-1.329,3.482-1.582c1.72-0.182,3.617,0.312,4.126,1.074
			c-3.786,0.3-7.912,3.121-9.013,3.92c-2.799-1.326-11.807,6.439-12.856,7.355c-6.364,1.658-11.701,8.645-12.503,11.488
			c-1.797,1.753-2.13,6.979-2.049,8.843c-0.008,0.004-0.016,0.007-0.023,0.01c-0.62,0.339-1.443,1.421-2.298,2.781
			c-2.808-2.137-1.798-8.478-0.895-14.106c1.037-6.448,7.156-9.81,8.372-10.417c0,0-1.89,0.703-2.717,1.258
			c-2.091,1.399-4.59,3.322-5.854,7.355c-1.693-0.153-2.953-0.044-3.895,0.232c-0.415,0.122-0.996,0.228-0.996,0.228
			c-0.293-0.098-0.531-0.344-0.666-0.693c-0.259-0.673-0.112-1.615,0.426-2.57C14.94,17.197,16.183,14.979,16.739,13.236z
			 M8.898,23.588c0.107-0.86,0.816-2.351,1.521-2.625c-0.082,0.724,0.397,3.43,0.89,4.197c0,0-0.299-1.614-0.442-2.963
			c-0.286-2.704,2.704-5.823,4.736-7.752c-0.616,1.389-1.47,2.914-2.173,4.163c-0.606,1.08-0.765,2.19-0.435,3.048
			c0.166,0.428,0.447,0.749,0.801,0.942c-1.212,0.933-1.543,2.327-1.537,3.43c0.005,0.926-0.736,2.135-1.712,2.161
			c-0.168-0.039-0.327-0.142-0.479-0.312C9.368,27.094,8.832,25.127,8.898,23.588z M6.689,27.382
			c0.351-1.793,1.162-2.857,1.521-3.118c0.092,1.315,0.916,3.91,1.656,4.273c-0.44,0.485-2.042,1.624-2.663,4.16
			C6.143,31.477,6.339,29.176,6.689,27.382z M15.109,45.752c-1.519-0.181-5.407-5.537-5.925-6.646
			c1.344,1.283,3.194,2.23,4.225,2.473c0,0-1.282-0.517-2.502-1.61c-1.22-1.094-1.937-1.564-2.71-2.734
			c-0.773-1.17-0.603-3.751-0.416-4.51c0.677-2.767,2.202-3.795,3.197-4.211c0.994-0.416,1.666-0.925,1.754-2.417
			c0.088-1.493,0.707-4.276,6.22-3.818c-0.091,0.355-1.088,8-0.93,10.797c0.127,2.242,0.468,4.004,1.878,5.034
			c-0.369,0.612-0.74,1.264-1.1,1.921c-1.431-0.438-2.598-1.083-3.273-2.225c-1.656-2.8-0.676-8.345-0.442-9.202
			c0.234-0.858,0.533-2.931,0.533-2.931c-0.053,0.212-0.139,0.503-0.243,0.859c-0.497,1.68-1.336,4.543-1.295,7.3
			c-1.014-0.862-3.061-1.39-4.719-1.298c0,0,1.2,0.36,1.617,0.411c1.639,0.198,3.083,0.991,3.076,2.367
			c-0.008,1.376-2.289,1.453-3.257,0.778c-0.379-0.265-1.533-0.92-1.533-0.92c1.425,1.471,2.542,1.879,3.345,1.879
			c0.466,0,0.825-0.137,1.077-0.285c0.286-0.168,0.507-0.395,0.674-0.642c0.161,0.652,0.394,1.276,0.732,1.848
			c0.738,1.25,1.884,2.125,3.407,2.616c-1.092,2.041-2.034,4.02-2.419,4.847C15.786,45.689,15.475,45.796,15.109,45.752z
			 M17.178,46.029c1.677-3.599,4.75-9.486,5.946-10.14c0.756-0.412,2.244-0.444,3.558-0.472c0.739-0.016,1.408-0.034,1.979-0.109
			c-0.23,1.203-0.334,3.028-0.132,4.48c0.101,0.726,1.072,1.425,1.072,1.425c-0.745-1.119-0.64-4.433-0.274-6.039
			c0.476-0.138,1.264-0.708,1.395-0.685c0.25,0.046,0.56,0.104,0.917,0.086c-0.054,0.903,0.186,2.091,0.487,3.06
			c0.198,0.635,1.141,1.146,1.141,1.146c-0.495-0.792-1.138-3.101-0.997-4.318c0.482-0.15,0.825-0.677,1.395-1.324
			c0.51-0.579,1.673-0.65,2.359-0.584c2.018,0.194,3.472,1.767,5.088,1.462c1.616-0.305,2.263-1.465,3.399-2.793
			c0.265,1.42,1.328,3.272,4.674,4.682c0,0-0.786-0.747-1.165-0.96c-2.496-1.406-2.92-3.295-2.958-4.409
			c0.164-0.653,0.534-1.335,0.827-1.9c0.232-0.45,0.527-0.863,0.897-1.144c0.094-0.072,0.503,0.497,0.662,0.856
			c0.736,1.669,2.236,3.52,3.942,4.335c0,0-0.984-1.138-1.368-1.455c-1.206-0.992-1.734-2.324-2.168-3.51
			c-0.113-0.31-0.023-1.018,0.082-1.09c0.752-0.523,1.498-0.986,2.145-1.131c0.229-0.052,2.824,0.165,4.206,0.758
			c1.111,0.476,1.964,0.783,2.705,0.783c0.851,0,1.553-0.407,2.326-1.438c1.41-1.879,1.619-3.046,1.503-4.428l-0.622,0.052
			c0.103,1.231-0.09,2.281-1.38,4.001c-1.201,1.6-2.03,1.422-4.286,0.455c-1.5-0.643-2.94-0.796-3.824-0.82
			c1.554-2.915,1.036-5.423,0.587-6.662c-0.429-1.181-1.136-2.142-1.762-2.392c0,0,0.772,1.493,1.174,2.604
			c0.416,1.142,0.782,3.714-0.668,6.422c-0.08,0.019-3.559,0.793-4.755,3.587c-0.373,0.867-3.162,4.507-4.329,4.659
			c-1.379,0.182-3.25-1.231-3.817-1.363c-1.364-0.318-2.492-0.26-3.338,0.147c0.218-1.164,0.977-2.402,3.925-3.041
			c4.25-0.919,4.498-3.088,5.14-6.407c0,0,0.362-1.814,0.488-2.339c1.749,0.129,4.017,0.76,3.625,0.527
			c-0.39-0.234-2.74-0.796-3.567-0.858c0.214-0.788,0.507-1.56,0.643-2.008c0.137-0.448,0.39-0.88,0.39-0.88
			c-0.634,0.545-1.044,1.299-1.456,2.864c-0.825-0.044-1.589-0.056-2.112-0.056c-2.091,0-2.729,1.765-3.194,3.054
			c-0.136,0.374,0.187-0.73,1.188-1.825c0.509-0.556,1.255-0.877,1.814-0.877c0.689,0,1.59,0.104,2.202,0.137
			c-0.121,0.519-0.456,2.121-0.456,2.121c-0.637,3.292-0.988,5.107-4.834,5.938c-3.812,0.825-4.367,2.719-4.484,4.123
			c-0.031,0.028-0.458,0.791-1.045,0.998c-0.624,0.219-1.412-0.121-1.48-0.127c-0.062-0.1-0.131-0.202-0.207-0.31
			c-0.729-1.036-1.83-2.6,4.303-7.409c1.724-0.229,2.106,1.161,2.122,1.22c0,0,0.404-0.903-0.272-1.407
			c-0.364-0.272-0.866-0.475-1.55-0.459c0.481-1.566,2.395-7.022,6.126-8.568c4.547-1.887,14.224-2.158,15.742-0.844
			c0.483,0.483,0.492,1.185,0.439,1.621c-0.82,0.753-1.661,2.329-2.509,4.708c0,0,0.809-0.402,0.917-0.678
			c0.795-2.038,1.453-3.03,1.937-3.505l0.816-0.45c1.417-0.372,4.37-1.145,6.105,4.656c0.136,0.272,0.16,0.517,0.073,0.748
			c-0.2,0.526-0.902,0.817-0.91,0.82c0,0,1.193,0.188,1.491-0.596c0.001-0.004,0.001-0.008,0.003-0.011
			c1.031,0.072,4.958,0.626,7.903,4.954c0,0-0.7-1.463-0.974-1.796c-2.951-3.561-5.738-3.708-6.845-3.779
			c-0.017-0.195-0.07-0.386-0.165-0.568c-0.563-1.885-1.266-3.125-2.015-3.93c0.68-0.527,2.842-1.553,4.181-1.078
			c0.711,0.253,1.165,1.525,1.32,2.625c-0.338-0.053-2.138-0.25-2.138-0.25c0.701,0.389,1.065,0.584,2.367,0.728
			c1.299,0.143,2.188-0.622,2.188-0.622c-0.549,0.229-1.279,0.267-2.002,0.196c-0.004-0.491,0.08-1.381-0.009-1.637
			c0.217-0.159,0.631-0.38,1.276-0.387h0.026c1.047,0,2.801,0.589,5.334,3.264c-0.002,0.003-0.001,0.008-0.002,0.011
			c0,0,3.261,3.047,0.89,7.158c-0.171-1.591-0.812-3.25-1.78-4.366c-0.969-1.116-2.244-1.482-2.244-1.482
			c1.51,1.107,3.642,4.078,3.422,6.934c0,0-0.548,1.174-0.873,2.144c-0.175,0.523-0.232,0.984-0.208,1.497
			c-0.728,0.118-1.44,0.474-2.127,0.832c-0.683,0.355-1.329,0.69-1.963,0.789c-2.03,0.311-5.141,0.419-5.692-0.322
			c-1.251-1.68-2.438-2.522-3.635-2.576c-1.619-0.068-2.952,1.328-4.225,2.751c-0.171-1.793-2.58-3.374-4.279-4.485
			c-0.512-0.334-1.621-0.367-1.621-0.367c0.295,0.246,1.053,0.421,1.582,0.767c1.861,1.217,4.365,3.176,3.56,4.936
			c-0.791,0.875-1.278,1.705-1.704,2.437c-0.811,1.391-1.346,2.31-3.379,2.514c-2.659,0.262-7.989-1.829-8.484-2.14
			c-0.494-0.313-1.628-1.279-1.628-1.279c0.996,1.771,6.008,4.072,9.49,4.072c0.236,0,0.465-0.01,0.685-0.033
			c2.35-0.235,3.015-1.375,3.855-2.819c0.419-0.719,0.895-1.536,1.667-2.382c0.181-0.196,0.359-0.397,0.54-0.598
			c1.232-1.382,2.521-2.801,3.916-2.75c0.996,0.044,2.03,0.805,3.161,2.326c0.045,0.061,0.106,0.113,0.167,0.165
			c-1.582,1.725-4.376,3.469-4.406,3.487c0,0,1.031,0.091,1.866-0.509c0.978-0.703,2.217-1.679,3.091-2.661
			c1.666,0.649,5.115,0.152,5.569,0.083c0.738-0.113,1.459-0.489,2.157-0.851c0.659-0.343,1.286-0.658,1.9-0.765
			c0.082,0.557,0.233,1.205,0.438,2.067c0.078,0.328,0.163,0.688,0.256,1.086c0.382,1.661-0.137,3.332-0.554,4.674
			c-0.295,0.944-0.548,1.759-0.448,2.401c0.116,0.756,0.557,1.345,1.026,1.967c0.508,0.675,1.085,1.442,1.421,2.619
			c0.466,1.635,0.367,3.274-0.136,3.976c-0.507,0.708-2.921-0.7-3.928-1.43c-1.378-0.998-3.328-1.342-5.49-0.968
			c-2.12,0.364-4.193,1.412-4.933,2.487c-0.381,0.555-0.782,1.272-0.492,1.894c0.36,0.776,1.638,1.175,4.711,1.476
			c2.191,0.213,3.211,1.517,4.292,2.896c1.037,1.327,2.112,2.698,4.253,2.872c1.493,0.122,3.917,0.509,4.562,0.84
			c0.779,0.41-2.476,2.028-6.087,1.021c-2.656-0.741-4.984-0.835-7.039-0.918c-3.534-0.142-6.087-0.244-8.249-3.486
			c-3.468-5.2-2.319-12.765-1.434-14.901c1.104-2.667,6.219-2.658,8.227-3.655c0.788-0.391,1.17-1.057,1.17-1.057
			c-1.389,1.436-7.356,1.742-9.371,2.686c-2.014,0.945-3.594,2.516-3.594,2.516c-1.413,1.313-4.104,1.337-5.268,1.057
			c-1.313-1.703-2.743-1.752-4.125-1.795c-1.064-0.033-2.163-0.067-3.308-0.844c-0.641-0.438-0.981-0.894-1.009-1.358
			c-0.039-0.637,0.412-1.569,0.992-2.128c0.218-0.209,1.133-0.656,1.283-0.805c0,0-1.092,0.135-1.558,0.568
			c-0.465,0.433-0.972,1.001-1.2,1.595c-0.306-0.039-1.602,0.056-2.229-0.188c0.067-0.431-0.075-1.329-0.313-2.573
			c-0.238-1.245-1.561-3.451-1.209-2.807c0.353,0.644,1.048,4.168,0.769,5.563c-0.221,1.104-2.168,4.408-3.294,4.414
			c-1.765-0.353-4.727,0.238-5.155,0.59c-0.429,0.351-1.233-1.374-1.364-2.112c-0.236-1.338-0.626-2.324-1.077-3.466
			c-0.193-0.488-1.188-1.368-1.188-1.368c0.207,0.583,0.411,1.102,0.607,1.597c0.439,1.109,0.819,2.069,1.044,3.345
			c0.317,1.798,1.354,2.471,1.211,3.371c-0.091,0.569-1.637,0.537-2.699,0.676c-0.863,0.113-1.671,0.223-2.274,0.44
			c-1.211-0.686-1.814-3.423-1.611-4.943c0,0-0.451,1.575-0.408,2.07c0.126,1.485,1.052,2.963,1.248,3.236
			c-0.273,0.234-0.68,1.049-1.012,1.657c-0.47,0.858-0.803,1.406-1.106,1.257c-1.161-0.58-2.053-0.653-2.639,0.205
			C16.053,52.152,16.744,47.852,17.178,46.029z M18.828,57.665c-0.735-0.104-1.453-2.435-1.525-2.566c0,0,0.076,0.621,0.193,1.226
			c0.117,0.604,0.342,1.58,1.02,1.77c0.098,0.027,0.899,0.001,1.028-0.049c-0.168,0.908-0.255,1.794-0.256,2.578
			c-1.268-1.013-2.495-2.34-2.986-3.858c-0.46-1.418-0.234-3.035,0.034-3.857c1.038-1.286,1.845-1.67,2.663-1.261
			c0.869,0.432,1.409-0.558,1.933-1.515c0.379-0.694,0.81-1.479,1.321-1.692c0.536-0.223,1.417-0.338,2.27-0.45
			c0.819-0.107,1.607-0.212,2.217-0.41c-0.352,1.146-0.03,2.193,1.036,3.435c1.271,1.485,2.132,8.198,2.147,5.739
			c0.014-2.458-1.035-5.399-1.674-6.145c-1.288-1.501-1.204-2.458-0.643-3.5c0.167-0.158,0.315-0.341,0.468-0.539
			c0.655-0.846,1.467-1.898,4.928-1.213c1.555,0,3.381-3.192,3.859-4.55c0.73,0.267,1.242,0.21,1.702,0.16
			c0.227-0.025,0.632,0.106,0.636,0.172c0.038,0.619,0.416,1.194,1.116,1.714c-0.101,0.607-0.356,2.503,0.082,3.735
			c0.089-0.01-0.027-0.575,0.066-1.396c0.077-0.687,0.368-1.609,0.423-1.973c1.148,0.637,2.25,0.676,3.233,0.708
			c1.376,0.042,2.564,0.08,3.718,1.637c0.833,1.125,1.333,1.804,1.656,2.29c0.475,0.716,1.375,1.532,1.375,1.532
			c-0.359-1.18-0.453-1.381-2.066-3.566c0.281,0.03,0.593,0.051,0.932,0.051c1.363,0,3.078-0.31,4.224-1.374
			c0,0,2.047-1.577,1.977-1.395c-0.474,1.232-1.532,5.812-0.624,10.532c-1.149,0.619-2.883,1.185-4.654,0.046
			c-1.771-1.139-4.151-2.372-5.632-4.699c-0.629-0.988-3.691-2.221-5.529-1.26c-1.838,0.96-4.905-0.07-5.112-0.102
			c0,0,0.662,0.397,1.285,0.671c0.625,0.273,2.4,0.343,2.577,0.329c-0.64,0.716-1.136,1.891-0.77,3.776
			c-1.398-0.196-2.179,0.131-2.508,0.847c-0.328,0.717-5.032-4.883-5.032-4.883c0.559,1.675,4.189,5.316,4.329,5.703
			c0.141,0.385-0.49,1.874-0.897,3.438c-0.475,1.828-1.067,2.858-1.76,3.059c-0.985,0.293-4.38-2.877-4.38-2.877
			c-1.314-1.216-1.865-2.682-2.308-3.858c-0.374-0.994-0.645-1.712-1.25-1.91c-0.357-0.119-0.771-0.021-1.26,0.3
			c-0.854,0.555-1.733,3.435-2.564,4.824C19.522,57.577,19.055,57.698,18.828,57.665z M40.812,52.933
			c-3.353,0.039-2.839-1.932-2.814-2.178c0.112-1.158,0.702-2.006,1.743-2.46c1.623-0.705,3.641-0.291,4.754,1.023
			c1.113,1.315,1.283,1.367,1.035,1.977C45.117,52.312,42.908,52.909,40.812,52.933z M43.236,61.321
			c-0.981,1.32-9.286,5.297-13.77,2.724c-2.321-1.331-3.813-3.255-4.504-4.126c-1.271-1.598-2.587-3.311-2.587-3.311
			c0.038,0.449,1.502,2.247,1.385,2.48c-0.118,0.235-2.975-0.558-2.975-0.558c0.667,0.297,1.071,0.441,2.284,0.853
			c1.211,0.412,3.421,3.455,4.464,4.421c-0.992,0.515-2.669,0.515-4.15-0.394c-0.557-0.556-1.237-1.328-1.632-2.118
			c-0.376-0.753-1.172-1.384-1.172-1.384c0.149,0.149,0.426,0.702,0.693,1.238c0.297,0.593,0.627,1.245,0.986,1.809
			c-0.824-0.079-2.034-0.78-2.328-1.654c-0.214-2.631,0.923-7.333,2.815-8.562c0.318-0.207,0.564-0.283,0.727-0.23
			c0.321,0.105,0.57,0.769,0.86,1.537c0.441,1.174,1.046,2.78,2.469,4.096c0,0,3.65,3.401,4.978,3.019
			c0.944-0.275,1.64-1.388,2.19-3.502c1.325-5.096,1.389-5.083,4.849-4.387c0,0,2.951,0.295,3.977,0.064
			c1.632-0.364,2.803-1.174,3.583-1.78c1.178,1.072,2.509,1.835,3.967,2.668c0,0,0.409,0.863,0.176,1.088
			c-1.525,1.479-4.943,3.558-6.546,4.177c-1.603,0.618-4.134,1.086-4.803,2.138c0,0,1.146-0.257,1.684-0.502
			c0.898-0.408,0.945-0.229,3.277-1.032c2.333-0.805,6.902-4.33,7.44-4.665c0.538-0.336,3.182-0.799,3.868-1.158
			c0.387,1.673,1.031,3.346,2.051,4.876c0.259,0.388,0.524,0.729,0.798,1.043C55.107,61.135,47.012,62.602,43.236,61.321z
			 M63.036,76.002c-7.294-3.267-11.272-8.053-13.066-10.951c-0.575-0.925-0.43-2.242-0.072-2.271
			c3.758-0.295,7.842-1.043,9.379-1.615c2.155,1.799,4.655,1.909,7.453,2.021c1.987,0.08,7.427,0.707,8.066,0.872
			c2.783,0.719,4.024-0.594,4.046,0.09c0.155,4.991-3.072,9.201-4.887,11.073C71.605,77.648,70.279,78.523,63.036,76.002z
			 M81.896,74.134c-1.925,2.42-5.658,2.299-7.537,2.057c0.079-0.08,0.157-0.152,0.238-0.237c2.594-2.676,5.844-8.516,5.341-12.657
			c0.513-0.307,0.727-0.891,1.13-1.238c0.666-0.572,1.433-0.916,1.833-1.362c0.146-0.163,0.311-0.346,0.453-0.492
			c0.622,1.416,2.433,2.147,2.515,2.181C86.316,67.405,84.607,70.727,81.896,74.134z M92.638,57.101
			c-0.488,0.804-1.166,1.667-1.451,1.824c-0.287,0.155-0.464-1.247-0.166-2.991c0.121-0.699,0.264-1.528,0.406-2.525
			c0.235-1.638,0.703-3.017,1.157-4.35c0.59-1.738,1.148-3.379,0.951-5.157c0,0-0.722,3.274-1.127,4.469
			c-0.442,1.297-1.356,3.252-1.6,4.95c-0.141,0.989-0.283,1.813-0.402,2.507c-0.328,1.911,0,3.771-0.896,4.366
			c-0.85,0.565-2.316,1.544-3.075,1.389c-0.761-0.156-1.977-0.994-2.378-1.833c0.504-0.543,0.957-2.942,0.942-3.141
			c0.912-1.231,1.83-3.6,1.82-5.627c4.127-4.424,3.813-7.648,2.383-10.227c0.25-0.213,1.47-1.464,1.843-1.425
			c0.703,0.078,1.755,1.324,3.305,3.91C94.98,47.901,94.903,53.359,92.638,57.101z"/>
	</g>
	<rect x="101.43" y="2.28" fill="none" width="362.962" height="52.616"/>
	
		<text transform="matrix(0.9 0 0 1 107.5151 50.437)" fill="#FFFFFF" font-family="'Roboto-Regular'" font-size="64.2096" letter-spacing="16.667">YJZHANG</text>
	<rect x="105.889" y="65.401" fill="none" width="354.045" height="24.525"/>
	<text transform="matrix(0.9 0 0 1 111.396 83.6299)"><tspan x="0" y="0" fill="#ACCDEC" font-family="'Raleway-Medium'" font-size="24.9704" letter-spacing="6.667">BIOMEDICAL</tspan><tspan x="221.661" y="0" fill="#FFFFFF" font-family="'Raleway-Medium'" font-size="24.9704" letter-spacing="6.667"> VISUALS</tspan></text>
</g>
</svg>
