<?xml version="1.0" encoding="utf-8"?>
<!-- Generator: Adobe Illustrator 16.0.0, SVG Export Plug-In . SVG Version: 6.00 Build 0)  -->
<!DOCTYPE svg PUBLIC "-//W3C//DTD SVG 1.1//EN" "http://www.w3.org/Graphics/SVG/1.1/DTD/svg11.dtd">
<svg version="1.1" xmlns="http://www.w3.org/2000/svg" xmlns:xlink="http://www.w3.org/1999/xlink" x="0px" y="0px" width="50px"
	 height="50px" viewBox="0 0 50 50" enable-background="new 0 0 50 50" xml:space="preserve">
<g id="id">
	<g>
		<path fill="#0872B9" d="M33.433,25.656c-0.395-1.797-1.8-3.258-3.816-3.258c-2.85,0-4.432,2.624-4.432,6.028
			c0,3.335,1.582,5.768,4.395,5.768c1.802,0,3.384-1.274,3.819-3.257c0.108-0.411,0.143-0.861,0.143-1.348v-2.732l0,0
			C33.541,26.481,33.507,26.032,33.433,25.656z"/>
		<path fill="#0872B9" d="M0.121,0v50h49.758V0H0.121z M18.34,37.488h-4.429V12.254h4.429V37.488z M34.153,37.488l-0.181-2.88
			h-0.071c-1.044,2.02-3.169,3.29-5.728,3.29c-4.179,0-7.492-3.705-7.492-9.321c-0.037-6.102,3.637-9.734,7.853-9.734
			c2.414,0,4.143,1.049,4.936,2.397h0.071V10.906h4.429v21.45c0,1.874,0.075,3.896,0.146,5.132H34.153z"/>
	</g>
</g>
<g id="ae">
	<g>
		<path fill="#0872B9" d="M34.75,21.479c-2.627,0-3.734,2.521-3.906,4.521h7.398C38.277,24,37.586,21.479,34.75,21.479z"/>
		<path fill="#0872B9" d="M17.391,15h-0.069c-0.346,2-0.691,3.22-1.106,4.74L14.418,26H20.4l-1.833-6.26
			C18.118,18.182,17.737,17,17.391,15z"/>
		<path fill="#0872B9" d="M0,0v50h50V0H0z M23.235,37l-2.109-7h-7.399l-2.005,7H7.33l7.469-26h5.429l7.572,26H23.235z M42.115,29
			H30.844c0.104,3,2.488,4.807,5.186,4.807c1.971,0,3.389-0.293,4.668-0.825l0.623,3.234c-1.453,0.646-3.457,1.142-5.879,1.142
			c-5.463,0-8.678-3.684-8.678-9.345c0-5.129,2.836-9.954,8.229-9.954c5.463,0,7.262,4.919,7.262,8.984
			C42.254,27.917,42.184,29,42.115,29z"/>
	</g>
</g>
<g id="pr">
	<g>
		<path fill="#0872B9" d="M18.667,15.672C17.491,15.672,17,15.787,16,15.9v8.663c1,0.152,1.423,0.189,2.287,0.189
			c3.181,0,5.117-1.709,5.117-4.711C23.404,17.192,21.606,15.672,18.667,15.672z"/>
		<path fill="#0872B9" d="M0,0v50h50V0H0z M25.863,25.665c-1.694,1.863-4.568,2.736-7.576,2.736C17.491,28.4,17,28.363,16,28.248V38
			h-4V12.632c2-0.304,3.733-0.531,6.603-0.531c3.112,0,5.446,0.722,6.932,2.09c1.383,1.253,2.309,3.267,2.309,5.661
			C27.844,22.284,27.178,24.297,25.863,25.665z M38,23.5c-1-0.076-0.83-0.152-1.348-0.152c-2.041,0-3.278,1.443-3.659,3.534
			C32.925,27.299,33,27.793,33,28.324V38h-5V25.361C28,22.853,28.319,21,28.216,19h3.7l0.138,4h0.139
			c0.83-3,2.903-3.986,4.702-3.986c0.414,0,0.105,0.002,1.105,0.078V23.5z"/>
	</g>
</g>
<g id="fl">
	<path fill="#0872B9" d="M0,0v50h50V0H0z M28,16H18v7h10v4H18v11h-4V12h14V16z M36,37.689c-1,0.21-2.383,0.374-3.229,0.215
		C30.916,37.555,30,35.495,30,34.608C30,32.717,30,12,30,12h5c0,0,0,14.942,0,20.503c0,1.099,0,1.549,1,1.343
		C36,35.255,36,37.012,36,37.689z"/>
</g>
<g id="maya">
	<g>
		<polygon fill="#0872B9" points="0.189,15.928 0,48 10,48 10,27.661 		"/>
		<polygon fill="#026399" points="25.125,2.203 0.236,15.57 10,27.661 10,20.114 		"/>
		<polygon fill="#00293F" points="18.931,20.052 9.812,20.114 25.095,2.126 		"/>
		<polygon fill="#004E75" points="10,46.591 14.591,33.006 10,27.661 		"/>
		<polygon fill="#004368" points="14.496,33.006 18.789,20.052 10,20.114 10,27.661 		"/>
		<polygon fill="#0872B9" points="49.812,15.928 50,48 40,48 40,27.661 		"/>
		<polygon fill="#026399" points="24.875,2.203 49.764,15.57 40,27.661 40,20.114 		"/>
		<polygon fill="#00293F" points="31.069,20.052 40.188,20.114 24.905,2.126 		"/>
		<polygon fill="#004E75" points="40,46.591 35.409,33.006 40,27.661 		"/>
		<polygon fill="#004368" points="35.503,33.006 31.211,20.052 40,20.114 40,27.661 		"/>
		<polygon fill="#004E75" points="31.007,20 25,2.489 25,2.31 25,2.399 25,2.31 25,2.489 18.898,20 		"/>
		<polygon fill="#0872B9" points="25,44.932 35.551,32.98 31.306,20 18.636,20 14.443,32.98 25,44.932 25,45.146 25,45.038 
			25,45.146 		"/>
	</g>
</g>
<g id="mud">
	<g>
		<polygon fill="#0872B9" points="13.46,2.749 0,39.168 22.352,17.182 		"/>
		<polygon fill="#026399" points="25.152,14.381 13.46,2.749 22.352,17.182 		"/>
		<polygon fill="#004368" points="13.966,39.18 0,39.168 22.352,17.334 25.152,21.932 		"/>
		<polygon fill="#004E75" points="9.074,47 8.344,47 0.018,39 13.882,39 		"/>
		<polygon fill="#0872B9" points="36.54,2.749 50,39.168 27.648,17.182 		"/>
		<polygon fill="#026399" points="24.848,14.381 36.54,2.749 27.648,17.182 		"/>
		<polygon fill="#004368" points="36.033,39.18 50,39.168 27.648,17.334 24.848,21.932 		"/>
		<polygon fill="#004E75" points="40.926,47 41.656,47 49.982,39 36.118,39 		"/>
		<polygon fill="#00293F" points="25.152,14.624 22.352,17.182 25.152,21.932 27.954,17.182 		"/>
		<polygon fill="#004E75" points="25.152,22.459 14.099,39 25.152,39 36.115,39 		"/>
	</g>
</g>
<g id="unity">
	<path fill="#0872B9" d="M42.484,50l6.07-18.308l-3.246-6.608l4.024-6.094L45.443,0L26.555,3.896l-4.105,6.123l-7.354-0.375
		L0.667,22.443l12.885,14.482l7.281,0.424l3.26,6.523L42.484,50z M45.118,25.088l-4.797,14.507l-7.61-15.212l9.373-14.223
		L45.118,25.088z M22.603,10.245L37.59,7.198l-9.374,14.225l-17.015-1.018L22.603,10.245z M10.823,25.739l16.998,1.006l7.628,15.223
		l-14.488-4.814L10.823,25.739z"/>
</g>
<g id="c4d">
	<g>
		<path fill="#0872B9" d="M38.663,23.504c0.62-5.994,2.99-8.292,4.496-9.549c1.08-0.904-1.634-3.462-2.625-4.455
			c-0.993-0.991-3.598-3.753-4.502-2.671c-1.257,1.505-3.602,3.828-9.596,4.448c-5.995,0.619-12.389,2.633-16.715,6.958
			c-6.242,6.242-5.566,15.736,0.387,21.689s15.385,6.566,21.628,0.325C36.063,35.924,38.044,29.499,38.663,23.504z"/>
		<path fill="#0872B9" d="M42.695,42.668c7.501-7.499,9.275-18.639,5.102-27.735c-0.508-1.11-1.956-2.189-3.426-0.719
			c-1.523,1.522-2.998,4.224-3.494,9.023c-0.681,6.586-2.954,13.56-7.708,18.313c-5.464,5.465-13.421,5.88-19.692,2.563
			c-0.187-0.099-2.902-1.739-4.389-3.228c-1.488-1.487-3.131-4.201-3.23-4.388C2.542,30.229,2.956,22.276,8.42,16.811
			c4.752-4.752,11.727-7.018,18.314-7.699c4.8-0.496,7.501-1.952,9.024-3.476c1.471-1.471,0.391-2.881-0.72-3.391
			C25.942-1.927,14.803-0.21,7.303,7.29C-0.501,15.095-2.048,26,2.645,36c-0.004,0-0.01,0-0.016,0c0.795,2,2.508,4.147,4.858,6.497
			S12,46.546,14,47.339c0-0.006,0-0.01,0-0.015C23,52.018,34.893,50.472,42.695,42.668z"/>
	</g>
</g>
</svg>
